<?xml version="1.0" standalone="no"?>
<!DOCTYPE svg PUBLIC "-//W3C//DTD SVG 20010904//EN"
 "http://www.w3.org/TR/2001/REC-SVG-20010904/DTD/svg10.dtd">
<svg version="1.0" xmlns="http://www.w3.org/2000/svg"
 width="500.000000pt" height="121.000000pt" viewBox="0 0 500.000000 121.000000"
 preserveAspectRatio="xMidYMid meet">

<g transform="translate(0.000000,121.000000) scale(0.100000,-0.100000)"
fill="#000000" stroke="none">
<path d="M670 920 c0 -10 32 -30 49 -30 8 0 7 7 -1 20 -13 20 -48 28 -48 10z"/>
<path d="M759 903 c-1 -15 -7 -38 -14 -54 -9 -24 10 -32 26 -12 10 12 11 17 2
20 -6 2 -9 15 -7 29 2 13 2 24 -1 24 -3 0 -5 -3 -6 -7z"/>
<path d="M815 890 c3 -5 8 -10 11 -10 2 0 4 5 4 10 0 6 -5 10 -11 10 -5 0 -7
-4 -4 -10z"/>
<path d="M801 817 c-1 -11 -6 -15 -13 -11 -7 5 -8 3 -3 -5 10 -16 29 2 22 21
-4 8 -6 7 -6 -5z"/>
<path d="M245 759 c-6 -8 -4 -10 5 -4 10 6 12 4 6 -11 -6 -15 -5 -17 5 -6 9 9
10 15 2 23 -8 8 -13 7 -18 -2z"/>
<path d="M2428 753 c-134 -3 -138 -4 -138 -25 0 -17 3 -19 12 -10 7 7 36 12
65 12 l53 0 0 -150 c0 -131 -2 -150 -17 -159 -14 -8 -7 -10 32 -10 39 0 46 2
33 10 -16 9 -18 28 -18 161 l0 150 64 -4 c57 -3 63 -2 58 14 -2 10 -5 17 -6
16 0 -1 -63 -4 -138 -5z"/>
<path d="M4130 751 c-53 -4 -87 -9 -77 -13 15 -7 17 -24 17 -157 0 -132 -2
-151 -17 -160 -13 -8 8 -10 79 -11 86 0 98 2 108 19 16 32 11 42 -10 21 -11
-11 -31 -21 -45 -21 -89 -5 -80 -12 -83 69 l-3 72 45 0 c32 0 48 -5 55 -17 8
-15 10 -11 11 20 0 35 -1 37 -16 23 -9 -9 -32 -16 -55 -16 l-39 0 0 75 0 75
59 0 c38 0 61 -4 64 -12 3 -7 6 -1 6 15 1 15 0 26 -1 25 -2 -1 -46 -4 -98 -7z"/>
<path d="M1183 740 c15 -10 17 -29 17 -160 0 -131 -2 -150 -17 -159 -25 -15
128 -14 160 0 66 30 63 143 -4 164 l-21 7 21 19 c14 14 21 32 21 59 0 54 -31
74 -124 78 -54 2 -67 0 -53 -8z m127 -30 c11 -11 20 -30 20 -43 0 -29 -27 -67
-48 -67 -10 -1 -2 -8 18 -18 91 -45 73 -152 -26 -152 l-44 0 0 150 0 150 30 0
c17 0 39 -9 50 -20z"/>
<path d="M1535 602 c-33 -81 -70 -157 -82 -169 l-22 -23 47 0 c32 0 42 3 33 9
-13 8 -13 16 0 58 l15 48 69 0 69 0 15 -48 c13 -42 13 -50 0 -58 -9 -6 4 -9
41 -9 50 0 53 1 34 14 -12 9 -47 79 -85 170 -35 86 -66 156 -69 156 -3 0 -32
-67 -65 -148z m111 -37 c6 -24 5 -25 -50 -25 -31 0 -56 3 -56 7 0 4 12 39 27
77 l27 69 23 -51 c12 -29 25 -63 29 -77z"/>
<path d="M1806 739 c11 -6 44 -50 72 -98 46 -77 52 -94 52 -143 0 -38 -5 -62
-16 -72 -14 -15 -11 -16 33 -16 37 1 44 3 31 11 -14 8 -18 24 -18 77 0 63 3
72 51 150 29 46 61 88 73 92 16 7 7 9 -33 9 -46 1 -52 -1 -38 -11 15 -12 13
-20 -25 -86 l-40 -74 -40 72 c-32 57 -37 74 -27 86 10 12 3 14 -42 13 -44 0
-50 -2 -33 -10z"/>
<path d="M2164 734 c23 -23 23 -285 0 -308 -14 -15 -11 -16 33 -16 37 1 44 3
31 11 -16 9 -18 28 -18 159 0 131 2 150 18 159 13 8 6 10 -31 11 -44 0 -47 -1
-33 -16z"/>
<path d="M2782 727 c-40 -42 -30 -79 39 -144 70 -67 84 -92 67 -128 -23 -50
-100 -45 -123 8 l-14 32 -1 -31 c0 -17 6 -36 13 -41 21 -17 75 -23 107 -12 37
13 50 35 50 85 0 33 -7 44 -65 98 -49 46 -65 68 -65 88 0 33 24 58 55 58 13 0
31 -7 39 -16 15 -14 16 -14 16 5 0 18 -6 21 -48 21 -38 0 -53 -5 -70 -23z"/>
<path d="M3013 739 c15 -9 17 -28 17 -159 0 -131 -2 -150 -17 -159 -14 -8 -7
-10 32 -10 39 0 46 2 33 10 -15 8 -18 24 -18 79 l0 70 100 0 100 0 0 -70 c0
-64 -2 -72 -22 -80 -18 -7 -11 -9 32 -9 42 0 51 2 38 10 -16 9 -18 28 -18 159
0 131 2 150 18 159 13 8 6 10 -32 11 -43 0 -47 -2 -32 -13 14 -10 16 -25 14
-82 l-3 -70 -97 -3 -98 -3 0 75 c0 61 3 77 18 85 13 8 6 10 -33 10 -39 0 -46
-2 -32 -10z"/>
<path d="M3470 593 c-36 -86 -74 -162 -85 -169 -18 -13 -16 -14 24 -14 34 0
41 3 33 13 -7 8 -5 26 7 57 l16 45 66 3 66 3 16 -43 c20 -52 21 -65 5 -71 -7
-3 12 -5 42 -5 30 0 48 2 38 5 -19 5 -26 20 -98 193 -28 69 -55 128 -58 132
-4 4 -36 -63 -72 -149z m95 24 c14 -37 25 -70 25 -72 0 -3 -25 -5 -55 -5 -30
0 -55 4 -55 10 0 14 52 142 56 137 2 -2 15 -33 29 -70z"/>
<path d="M3773 732 c14 -15 17 -42 17 -153 0 -136 -3 -152 -30 -162 -8 -3 31
-6 88 -6 101 -1 103 -1 112 25 15 37 12 40 -10 16 -12 -12 -31 -23 -43 -23
-12 -1 -37 -2 -54 -3 l-33 -1 0 152 c0 134 2 153 18 162 13 8 6 10 -32 11 -47
0 -48 -1 -33 -18z"/>
<path d="M4376 739 c-2 -8 -12 -79 -21 -159 -12 -109 -20 -148 -32 -158 -14
-10 -11 -12 20 -12 32 0 37 2 29 18 -4 9 -3 67 3 127 l11 110 57 -119 c31 -65
57 -122 57 -127 0 -30 22 7 69 117 30 69 58 121 62 117 5 -5 10 -61 11 -126
l3 -117 39 0 c34 0 37 2 23 13 -12 9 -20 49 -33 162 -10 83 -20 153 -23 157
-4 4 -33 -52 -65 -125 -32 -73 -62 -136 -66 -140 -3 -4 -35 54 -70 130 -72
157 -68 150 -74 132z"/>
<path d="M170 717 c0 -8 6 -14 14 -14 8 0 12 6 9 14 -3 7 -9 13 -14 13 -5 0
-9 -6 -9 -13z"/>
<path d="M237 695 c-4 -22 -3 -23 20 -8 28 18 28 19 4 26 -14 3 -20 -2 -24
-18z"/>
<path d="M200 681 c0 -6 4 -13 10 -16 6 -3 7 1 4 9 -7 18 -14 21 -14 7z"/>
<path d="M213 626 c-4 -5 -1 -6 7 -1 10 6 12 4 7 -8 -3 -8 1 -21 8 -27 16 -13
24 -1 22 32 0 17 -34 21 -44 4z"/>
</g>
</svg>
